# xmcd CD database file
#
# Track frame offsets:
#	150
#	13416
#	31147
#	44763
#	59680
#	72284
#	99075
#	116449
#	130327
#	147003
#	165039
#	184431
#	197176
#	215299
#
# Disc length: 3086 seconds
#
# Revision: 0
# Processed by: cddbd v1.5.2PL0 Copyright (c) Steve Scherf et al.
# Submitted via: CDex 1.51
#
DISCID=c90c0c0e
DTITLE=get up and dance special nr. 64 - get up and dance special nr. 64
DYEAR=2008
DGENRE=Country
TTITLE0=Repect
TTITLE1=Anybody Wanna
TTITLE2=Friends For Ten
TTITLE3=1 2 3 Summertime
TTITLE4=On Your marks
TTITLE5=JFF
TTITLE6=Feed the Fetish
TTITLE7=Freedom Feels Like
TTITLE8=Fire On Ice
TTITLE9=Inside Out
TTITLE10=Paint It Blue
TTITLE11=Crazy 2
TTITLE12=Cha Quila
TTITLE13=Headphones
EXTD=YEAR: 2008
EXTT0=
EXTT1=
EXTT2=
EXTT3=
EXTT4=
EXTT5=
EXTT6=
EXTT7=
EXTT8=
EXTT9=
EXTT10=
EXTT11=
EXTT12=
EXTT13=
PLAYORDER=
